<svg xmlns="http://www.w3.org/2000/svg" viewBox="0 0 64 64" role="img" aria-label="AXIS">
  <rect width="64" height="64" rx="14" fill="#000"/>
  <g fill="#fff" transform="translate(8 14) scale(0.135)">
    <path d="M8 100 L38 8 H62 L92 100 H72 L66 80 H34 L28 100 Z M40 62 H60 L50 30 Z"/>
    <path d="M100 8 H122 L140 40 L158 8 H180 L150 54 L182 100 H160 L140 68 L120 100 H98 L130 54 Z"/>
    <path d="M190 8 H212 V100 H190 Z"/>
    <path d="M226 72 H246 C246 82 254 86 264 86 C272 86 278 82 278 76 C278 68 272 66 258 62 C238 56 228 50 228 34 C228 18 240 6 262 6 C284 6 296 18 296 34 H276 C276 26 270 22 262 22 C254 22 248 26 248 32 C248 40 254 42 268 46 C288 52 298 60 298 76 C298 92 286 102 264 102 C240 102 226 90 226 72 Z"/>
  </g>
</svg>
